<svg width="49" height="51" viewBox="0 0 49 51" fill="none" xmlns="http://www.w3.org/2000/svg">
<path fill-rule="evenodd" clip-rule="evenodd" d="M17.3069 13.7633C17.0384 13.1094 16.7998 12.4568 16.5917 11.7973C16.2793 10.808 16.101 9.7803 15.8428 8.77877C15.7329 8.35396 15.429 7.25036 15.4133 7.08528C15.2838 5.64505 16.3635 5.17554 16.6848 5.06259C16.8393 5.00351 18.437 4.44889 19.2025 6.18672C20.14 8.31121 20.7861 10.5177 21.1292 12.7448C21.9097 14.5274 22.9428 16.2447 24.1325 17.7419C28.8656 23.6963 35.1463 22.9559 41.778 21.3892C42.7965 21.1424 43.8269 21.7522 44.1105 22.756C44.3959 23.7674 43.8359 24.8258 42.8392 25.148C39.2059 26.3486 33.2904 30.8207 31.7144 34.4381C31.3849 35.1954 31.4624 36.8241 31.4436 38.4425C31.4147 40.6896 31.2835 42.9357 30.8022 43.9763C30.731 44.137 29.8051 45.8244 29.4806 46.1147C28.6992 46.8057 27.9209 46.6848 27.4565 46.517C26.9921 46.3492 26.417 45.9414 26.0416 45.1351C25.6491 44.2925 25.3992 42.4378 25.2811 42.055C24.8525 40.6665 23.9417 37.9578 22.8251 35.7052C22.2235 34.4924 21.6237 33.3835 20.942 32.9196C18.4185 31.2027 15.2448 32.259 12.5924 33.2374C12.2871 33.3467 11.9835 33.4637 11.679 33.5728C10.6405 34.1534 9.51417 34.6655 8.29817 35.0936C6.46242 35.7424 5.75948 34.0787 5.71671 33.9679C5.62447 33.7238 5.19964 32.4549 6.50348 31.6134C6.64643 31.5248 7.73356 31.0135 8.1518 30.8144C8.73478 30.5377 9.33156 30.2901 9.93236 30.0496C15.9174 26.5897 18.1406 20.1755 17.3069 13.7633ZM21.0899 20.206C24.6592 24.6814 28.8981 26.2748 33.5195 26.3841L33.5188 26.3843C31.1124 28.4312 29.0341 30.7812 28.1247 32.8744C27.7791 33.6674 27.6306 35.1385 27.5652 36.7674C27.0178 35.3898 26.3709 33.9382 25.6772 32.7302C24.887 31.3513 23.9965 30.2602 23.1475 29.6816C21.509 28.5672 19.6762 28.1553 17.809 28.1688C19.5111 25.7996 20.5929 23.0811 21.0899 20.206Z" fill="#FFFF60"/>
</svg>
